<svg xmlns="http://www.w3.org/2000/svg" width="1440" height="350"><path d="M669,228L1015,194L644,-30Z" fill="#1f282e" stroke="#1f282e" stroke-width="1.51"/><path d="M1015,194L1020,-74L644,-30Z" fill="#39454b" stroke="#39454b" stroke-width="1.51"/><path d="M669,228L991,423L1015,194Z" fill="#516a71" stroke="#516a71" stroke-width="1.51"/><path d="M669,228L713,505L991,423Z" fill="#161a1a" stroke="#161a1a" stroke-width="1.51"/><path d="M644,-30L315,285L669,228Z" fill="#1b2329" stroke="#1b2329" stroke-width="1.51"/><path d="M669,228L349,352L713,505Z" fill="#171c20" stroke="#171c20" stroke-width="1.51"/><path d="M400,-408L384,-109L644,-30Z" fill="#2d343b" stroke="#2d343b" stroke-width="1.51"/><path d="M1020,-74L800,-471L644,-30Z" fill="#282b2c" stroke="#282b2c" stroke-width="1.51"/><path d="M1020,-74L1181,-339L1023,-403Z" fill="#536469" stroke="#536469" stroke-width="1.51"/><path d="M1334,-192L1181,-339L1020,-74Z" fill="#444f53" stroke="#444f53" stroke-width="1.51"/><path d="M1356,253L1020,-74L1015,194Z" fill="#4b6570" stroke="#4b6570" stroke-width="1.51"/><path d="M315,285L349,352L669,228Z" fill="#48626f" stroke="#48626f" stroke-width="1.51"/><path d="M384,-109L315,285L644,-30Z" fill="#374857" stroke="#374857" stroke-width="1.51"/><path d="M991,423L1356,253L1015,194Z" fill="#668790" stroke="#668790" stroke-width="1.51"/><path d="M1023,-403L800,-471L1020,-74Z" fill="#3d474a" stroke="#3d474a" stroke-width="1.51"/><path d="M1356,253L1334,-192L1020,-74Z" fill="#3a4346" stroke="#3a4346" stroke-width="1.51"/><path d="M991,423L1378,547L1356,253Z" fill="#2b3538" stroke="#2b3538" stroke-width="1.51"/><path d="M713,505L933,656L991,423Z" fill="#232b2d" stroke="#232b2d" stroke-width="1.51"/><path d="M680,741L933,656L713,505Z" fill="#131617" stroke="#131617" stroke-width="1.51"/><path d="M384,-109L185,231L315,285Z" fill="#304150" stroke="#304150" stroke-width="1.51"/><path d="M800,-471L400,-408L644,-30Z" fill="#212326" stroke="#212326" stroke-width="1.51"/><path d="M1356,253L1472,204L1334,-192Z" fill="#30414d" stroke="#30414d" stroke-width="1.51"/><path d="M1575,374L1472,204L1356,253Z" fill="#3a4b4f" stroke="#3a4b4f" stroke-width="1.51"/><path d="M55,-162L185,231L384,-109Z" fill="#32373d" stroke="#32373d" stroke-width="1.51"/><path d="M315,285L185,231L349,352Z" fill="#4c6673" stroke="#4c6673" stroke-width="1.51"/><path d="M332,865L680,741L349,352Z" fill="#212a33" stroke="#212a33" stroke-width="1.51"/><path d="M349,352L680,741L713,505Z" fill="#171c1f" stroke="#171c1f" stroke-width="1.51"/><path d="M933,656L1378,547L991,423Z" fill="#415358" stroke="#415358" stroke-width="1.51"/><path d="M1341,717L1378,547L933,656Z" fill="#2f3a3e" stroke="#2f3a3e" stroke-width="1.51"/><path d="M1472,204L1645,-217L1334,-192Z" fill="#1c1b1b" stroke="#1c1b1b" stroke-width="1.51"/><path d="M1378,547L1575,374L1356,253Z" fill="#0e0f0f" stroke="#0e0f0f" stroke-width="1.51"/><path d="M172,-410L55,-162L384,-109Z" fill="#32363c" stroke="#32363c" stroke-width="1.51"/><path d="M1378,547L1668,741L1575,374Z" fill="#0d0e0e" stroke="#0d0e0e" stroke-width="1.51"/><path d="M680,741L1341,717L933,656Z" fill="#344246" stroke="#344246" stroke-width="1.51"/><path d="M400,-408L172,-410L384,-109Z" fill="#36404a" stroke="#36404a" stroke-width="1.51"/><path d="M800,-471L172,-410L400,-408Z" fill="#2f363f" stroke="#2f363f" stroke-width="1.51"/><path d="M185,231L41,433L349,352Z" fill="#2a3239" stroke="#2a3239" stroke-width="1.51"/><path d="M-156,187L41,433L185,231Z" fill="#465559" stroke="#465559" stroke-width="1.51"/><path d="M1806,4L1645,-217L1472,204Z" fill="#1c1b1b" stroke="#1c1b1b" stroke-width="1.51"/><path d="M1334,-192L1662,-489L1181,-339Z" fill="#232424" stroke="#232424" stroke-width="1.51"/><path d="M1181,-339L1662,-489L1023,-403Z" fill="#32383a" stroke="#32383a" stroke-width="1.51"/><path d="M1023,-403L1662,-489L800,-471Z" fill="#465357" stroke="#465357" stroke-width="1.51"/><path d="M41,433L198,759L349,352Z" fill="#232a2f" stroke="#232a2f" stroke-width="1.51"/><path d="M680,741L332,865L1341,717Z" fill="#151819" stroke="#151819" stroke-width="1.51"/><path d="M198,759L332,865L349,352Z" fill="#27313a" stroke="#27313a" stroke-width="1.51"/><path d="M1575,374L1786,192L1472,204Z" fill="#405257" stroke="#405257" stroke-width="1.51"/><path d="M1950,359L1786,192L1575,374Z" fill="#273032" stroke="#273032" stroke-width="1.51"/><path d="M55,-162L-156,187L185,231Z" fill="#384451" stroke="#384451" stroke-width="1.51"/><path d="M-78,-318L-110,-155L55,-162Z" fill="#292626" stroke="#292626" stroke-width="1.51"/><path d="M1786,192L1806,4L1472,204Z" fill="#191f24" stroke="#191f24" stroke-width="1.51"/><path d="M-110,-155L-156,187L55,-162Z" fill="#292626" stroke="#292626" stroke-width="1.51"/><path d="M41,433L-60,826L198,759Z" fill="#1e1f21" stroke="#1e1f21" stroke-width="1.51"/><path d="M172,-410L-78,-318L55,-162Z" fill="#2b2a2b" stroke="#2b2a2b" stroke-width="1.51"/><path d="M-156,187L-134,380L41,433Z" fill="#262828" stroke="#262828" stroke-width="1.51"/><path d="M1946,-497L1662,-489L1645,-217Z" fill="#1c1b1b" stroke="#1c1b1b" stroke-width="1.51"/><path d="M1645,-217L1662,-489L1334,-192Z" fill="#1c1b1b" stroke="#1c1b1b" stroke-width="1.51"/><path d="M1341,717L1668,741L1378,547Z" fill="#0d0e0e" stroke="#0d0e0e" stroke-width="1.51"/><path d="M332,865L1668,741L1341,717Z" fill="#3f5055" stroke="#3f5055" stroke-width="1.51"/><path d="M1806,4L1946,-497L1645,-217Z" fill="#1c1b1b" stroke="#1c1b1b" stroke-width="1.51"/><path d="M1786,192L1950,359L1806,4Z" fill="#111414" stroke="#111414" stroke-width="1.51"/><path d="M1668,741L1950,359L1575,374Z" fill="#0d0e0e" stroke="#0d0e0e" stroke-width="1.51"/><path d="M-134,380L-60,826L41,433Z" fill="#1c1b1b" stroke="#1c1b1b" stroke-width="1.51"/><path d="M198,759L-60,826L332,865Z" fill="#22262b" stroke="#22262b" stroke-width="1.51"/><path d="M1662,-489L1946,-497L800,-471Z" fill="#1c1b1b" stroke="#1c1b1b" stroke-width="1.51"/><path d="M1950,359L1946,-497L1806,4Z" fill="#1c1b1b" stroke="#1c1b1b" stroke-width="1.51"/><path d="M1668,741L1938,716L1950,359Z" fill="#0d0e0e" stroke="#0d0e0e" stroke-width="1.51"/><path d="M332,865L1938,716L1668,741Z" fill="#212729" stroke="#212729" stroke-width="1.51"/><path d="M-484,-377L-414,-227L-78,-318Z" fill="#292626" stroke="#292626" stroke-width="1.51"/><path d="M-78,-318L-414,-227L-110,-155Z" fill="#292626" stroke="#292626" stroke-width="1.51"/><path d="M-110,-155L-414,-227L-156,187Z" fill="#292626" stroke="#292626" stroke-width="1.51"/><path d="M-156,187L-480,394L-134,380Z" fill="#2e3234" stroke="#2e3234" stroke-width="1.51"/><path d="M-134,380L-458,726L-60,826Z" fill="#1c1b1b" stroke="#1c1b1b" stroke-width="1.51"/><path d="M-548,263L-480,394L-156,187Z" fill="#475458" stroke="#475458" stroke-width="1.51"/><path d="M-414,-227L-548,263L-156,187Z" fill="#353e48" stroke="#353e48" stroke-width="1.51"/><path d="M-414,-227L-484,-377L-548,263Z" fill="#292626" stroke="#292626" stroke-width="1.51"/><path d="M172,-410L-484,-377L-78,-318Z" fill="#292626" stroke="#292626" stroke-width="1.51"/><path d="M800,-471L-484,-377L172,-410Z" fill="#303338" stroke="#303338" stroke-width="1.51"/><path d="M-548,263L-458,726L-480,394Z" fill="#1c1b1b" stroke="#1c1b1b" stroke-width="1.51"/><path d="M-480,394L-458,726L-134,380Z" fill="#1c1b1b" stroke="#1c1b1b" stroke-width="1.51"/></svg>