<?xml version="1.0" encoding="utf-8"?>
<!-- Generator: Adobe Illustrator 23.0.2, SVG Export Plug-In . SVG Version: 6.00 Build 0)  -->
<!DOCTYPE svg PUBLIC "-//W3C//DTD SVG 1.1//EN" "http://www.w3.org/Graphics/SVG/1.1/DTD/svg11.dtd" [
	<!ENTITY ns_extend "http://ns.adobe.com/Extensibility/1.0/">
	<!ENTITY ns_ai "http://ns.adobe.com/AdobeIllustrator/10.0/">
	<!ENTITY ns_graphs "http://ns.adobe.com/Graphs/1.0/">
	<!ENTITY ns_vars "http://ns.adobe.com/Variables/1.0/">
	<!ENTITY ns_imrep "http://ns.adobe.com/ImageReplacement/1.0/">
	<!ENTITY ns_sfw "http://ns.adobe.com/SaveForWeb/1.0/">
	<!ENTITY ns_custom "http://ns.adobe.com/GenericCustomNamespace/1.0/">
	<!ENTITY ns_adobe_xpath "http://ns.adobe.com/XPath/1.0/">
]>
<svg version="1.1" id="Layer_1" xmlns:x="&ns_extend;" xmlns:i="&ns_ai;" xmlns:graph="&ns_graphs;"
	 xmlns="http://www.w3.org/2000/svg" xmlns:xlink="http://www.w3.org/1999/xlink" x="0px" y="0px" viewBox="0 0 615 320"
	 style="enable-background:new 0 0 615 320;" xml:space="preserve">
<metadata>
	<sfw  xmlns="&ns_sfw;">
		<slices></slices>
		<sliceSourceBounds  bottomLeftOrigin="true" height="428.2" width="657.8" x="-18.2" y="-94.8"></sliceSourceBounds>
	</sfw>
</metadata>
<g>
	
		<image style="overflow:visible;enable-background:new    ;" width="659" height="429" xlink:href="D6F8AE9A.png"  transform="matrix(0.9982 0 0 0.9982 -18.2202 -13.4726)">
	</image>
	<g>
		<g>
			<path style="fill:#333333;" d="M41.8,24.4h44.1c9.6,0,16.8,2.3,21.6,6.9c4.8,4.6,7.2,11.1,7.2,19.5c0,8.7-2.6,15.4-7.8,20.3
				c-5.2,4.9-13.2,7.3-23.9,7.3H68.5v31.9H41.8V24.4z M68.5,61H75c5.1,0,8.7-0.9,10.8-2.7c2.1-1.8,3.1-4.1,3.1-6.8s-0.9-5-2.7-6.9
				c-1.8-1.9-5.2-2.8-10.1-2.8h-7.6C68.5,41.8,68.5,61,68.5,61z"/>
			<path style="fill:#333333;" d="M194.6,110.3H123c0.8-7.1,3.3-13.7,7.5-20c4.2-6.2,12-13.6,23.4-22.1c7-5.2,11.5-9.1,13.4-11.8
				c2-2.7,2.9-5.3,2.9-7.7c0-2.6-1-4.9-2.9-6.7c-1.9-1.9-4.4-2.8-7.3-2.8c-3,0-5.5,1-7.5,2.9c-1.9,1.9-3.2,5.3-3.9,10.1l-23.9-1.9
				c0.9-6.7,2.7-12,5.2-15.7c2.5-3.8,6-6.7,10.6-8.7s10.8-3,18.9-3c8.4,0,14.9,1,19.6,2.9c4.7,1.9,8.3,4.9,11,8.8
				c2.7,4,4,8.4,4,13.3c0,5.2-1.5,10.2-4.6,15s-8.6,10-16.7,15.7c-4.8,3.3-8,5.6-9.6,7c-1.6,1.3-3.5,3.1-5.7,5.2h37.3L194.6,110.3
				C194.7,110.3,194.6,110.3,194.6,110.3z"/>
			<path style="fill:#333333;" d="M204.8,67c0-16.3,2.9-27.8,8.8-34.3c5.9-6.5,14.8-9.8,26.9-9.8c5.8,0,10.5,0.7,14.2,2.1
				s6.7,3.3,9.1,5.6s4.2,4.7,5.5,7.2s2.4,5.5,3.3,8.8c1.6,6.4,2.4,13.1,2.4,20c0,15.6-2.6,27-7.9,34.2s-14.4,10.8-27.2,10.8
				c-7.2,0-13.1-1.2-17.5-3.5c-4.5-2.3-8.1-5.7-11-10.1c-2.1-3.2-3.7-7.5-4.8-13C205.4,79.7,204.8,73.6,204.8,67z M228.4,67
				c0,10.9,1,18.4,2.9,22.4s4.7,6,8.4,6c2.4,0,4.5-0.8,6.3-2.5s3.1-4.4,3.9-8.1s1.3-9.4,1.3-17.2c0-11.4-1-19.1-2.9-23
				s-4.8-5.9-8.7-5.9s-6.8,2-8.6,6C229.3,48.8,228.4,56.2,228.4,67z"/>
			<path style="fill:#333333;" d="M284.8,67c0-16.3,2.9-27.8,8.8-34.3s14.8-9.8,26.9-9.8c5.8,0,10.5,0.7,14.2,2.1s6.7,3.3,9.1,5.6
				s4.2,4.7,5.5,7.2s2.4,5.5,3.3,8.8c1.6,6.4,2.4,13.1,2.4,20c0,15.6-2.6,27-7.9,34.2s-14.4,10.8-27.2,10.8
				c-7.2,0-13.1-1.2-17.5-3.5s-8.1-5.7-11-10.1c-2.1-3.2-3.7-7.5-4.8-13C285.4,79.7,284.8,73.6,284.8,67z M308.5,67
				c0,10.9,1,18.4,2.9,22.4s4.7,6,8.4,6c2.4,0,4.5-0.8,6.3-2.5s3.1-4.4,3.9-8.1s1.3-9.4,1.3-17.2c0-11.4-1-19.1-2.9-23
				s-4.8-5.9-8.7-5.9s-6.8,2-8.6,6C309.4,48.8,308.5,56.2,308.5,67z"/>
			<path style="fill:#333333;" d="M364.9,67c0-16.3,2.9-27.8,8.8-34.3s14.8-9.8,26.9-9.8c5.8,0,10.5,0.7,14.2,2.1s6.7,3.3,9.1,5.6
				s4.2,4.7,5.5,7.2s2.4,5.5,3.3,8.8c1.6,6.4,2.4,13.1,2.4,20c0,15.6-2.6,27-7.9,34.2s-14.4,10.8-27.2,10.8
				c-7.2,0-13.1-1.2-17.5-3.5s-8.1-5.7-11-10.1c-2.1-3.2-3.7-7.5-4.8-13C365.4,79.7,364.9,73.6,364.9,67z M388.5,67
				c0,10.9,1,18.4,2.9,22.4s4.7,6,8.4,6c2.4,0,4.5-0.8,6.3-2.5s3.1-4.4,3.9-8.1s1.3-9.4,1.3-17.2c0-11.4-1-19.1-2.9-23
				s-4.8-5.9-8.7-5.9s-6.8,2-8.6,6C389.4,48.8,388.5,56.2,388.5,67z"/>
			<path style="fill:#4D8788;" d="M287.8,213.6h34.7v18.5h-34.7V213.6z"/>
			<path style="fill:#4D8788;" d="M333.6,168.4h34.9l13.5,52.3l13.4-52.3h34.9v85.9h-21.7v-65.6l-16.9,65.6H372l-16.6-65.6v65.5
				h-21.7L333.6,168.4L333.6,168.4L333.6,168.4z"/>
			<path style="fill:#4D8788;" d="M441.1,168.4h80.7v21.2h-27.1v64.7h-26.5v-64.7h-27.1L441.1,168.4L441.1,168.4z"/>
		</g>
	</g>
</g>
</svg>
